<svg width="240" height="240" viewBox="0 0 240 240" fill="none" xmlns="http://www.w3.org/2000/svg">
<path d="M200 50H40V90H200V50Z" fill="#E8F7FF"/>
<path d="M190 45H50C41.7157 45 35 51.7157 35 60V180C35 188.284 41.7157 195 50 195H190C198.284 195 205 188.284 205 180V60C205 51.7157 198.284 45 190 45Z" stroke="#7DA6FF" stroke-width="10"/>
<path d="M44 85H203" stroke="#7DA6FF" stroke-width="10" stroke-linecap="square"/>
<path d="M76 35.5C76 35.2239 75.7761 35 75.5 35C75.2239 35 75 35.2239 75 35.5V54.5C75 54.7761 75.2239 55 75.5 55C75.7761 55 76 54.7761 76 54.5V35.5Z" stroke="#7DA6FF" stroke-width="10"/>
<path d="M166 35.5C166 35.2239 165.776 35 165.5 35C165.224 35 165 35.2239 165 35.5V54.5C165 54.7761 165.224 55 165.5 55C165.776 55 166 54.7761 166 54.5V35.5Z" stroke="#7DA6FF" stroke-width="10"/>
<path d="M77 110H73C68.5817 110 65 113.582 65 118V122C65 126.418 68.5817 130 73 130H77C81.4183 130 85 126.418 85 122V118C85 113.582 81.4183 110 77 110Z" stroke="#7DA6FF" stroke-width="10"/>
<path d="M77 150H73C68.5817 150 65 153.582 65 158V162C65 166.418 68.5817 170 73 170H77C81.4183 170 85 166.418 85 162V158C85 153.582 81.4183 150 77 150Z" stroke="#7DA6FF" stroke-width="10"/>
<path d="M122 110H118C113.582 110 110 113.582 110 118V122C110 126.418 113.582 130 118 130H122C126.418 130 130 126.418 130 122V118C130 113.582 126.418 110 122 110Z" stroke="#7DA6FF" stroke-width="10"/>
<path d="M122 150H118C113.582 150 110 153.582 110 158V162C110 166.418 113.582 170 118 170H122C126.418 170 130 166.418 130 162V158C130 153.582 126.418 150 122 150Z" stroke="#7DA6FF" stroke-width="10"/>
<path d="M167 110H163C158.582 110 155 113.582 155 118V122C155 126.418 158.582 130 163 130H167C171.418 130 175 126.418 175 122V118C175 113.582 171.418 110 167 110Z" stroke="#7DA6FF" stroke-width="10"/>
<path d="M167 150H163C158.582 150 155 153.582 155 158V162C155 166.418 158.582 170 163 170H167C171.418 170 175 166.418 175 162V158C175 153.582 171.418 150 167 150Z" stroke="#7DA6FF" stroke-width="10"/>
</svg>
