<svg width="54" height="54" viewBox="0 0 54 54" fill="none" xmlns="http://www.w3.org/2000/svg">
<path d="M35.5692 39.0445L35.0583 40.2761C35.5428 40.477 36.0623 40.5805 36.5868 40.5805C37.1114 40.5805 37.6308 40.477 38.1154 40.2761C38.5999 40.0751 39.0401 39.7805 39.4106 39.4091L39.4162 39.4035L39.4218 39.3978C40.933 37.8469 40.9503 35.3052 39.4096 33.7645L32.6458 27.0007L39.4096 20.2368C39.7803 19.8661 40.0744 19.426 40.275 18.9417C40.4756 18.4573 40.5789 17.9382 40.5789 17.414C40.5789 16.8897 40.4756 16.3706 40.275 15.8863C40.0744 15.402 39.7803 14.9619 39.4096 14.5912C39.0389 14.2205 38.5989 13.9264 38.1145 13.7258C37.6302 13.5252 37.1111 13.4219 36.5868 13.4219C36.0626 13.4219 35.5435 13.5252 35.0591 13.7258C34.5748 13.9264 34.1347 14.2205 33.764 14.5912L27.0002 21.355L20.2363 14.5912C19.4876 13.8425 18.4723 13.4219 17.4135 13.4219C16.3547 13.4219 15.3393 13.8425 14.5907 14.5912C13.842 15.3398 13.4214 16.3552 13.4214 17.414C13.4214 18.4727 13.842 19.4881 14.5907 20.2368L21.3545 27.0007L14.5907 33.7645C14.22 34.1352 13.9259 34.5753 13.7253 35.0596C13.5247 35.544 13.4214 36.0631 13.4214 36.5873C13.4214 37.6461 13.842 38.6615 14.5907 39.4101C15.3393 40.1588 16.3547 40.5794 17.4135 40.5794C18.4723 40.5794 19.4877 40.1588 20.2363 39.4101L27.0002 32.6463L33.7631 39.4091L35.5692 39.0445ZM35.5692 39.0445L35.0583 40.276C34.5742 40.0752 34.1344 39.781 33.764 39.4101L35.5692 39.0445ZM1.66683 27.0007C1.66683 12.9904 12.9899 1.66732 27.0002 1.66732C41.0105 1.66732 52.3335 12.9904 52.3335 27.0007C52.3335 41.0109 41.0105 52.334 27.0002 52.334C12.9899 52.334 1.66683 41.0109 1.66683 27.0007Z" fill="white" stroke="#2C7DA0" stroke-width="2.66667"/>
</svg>
