<svg width="55" height="54" viewBox="0 0 55 54" fill="none" xmlns="http://www.w3.org/2000/svg">
<path d="M46.4627 39.0885H3.07812V34.75H43.5089C45.0781 34.75 46.3704 36.0423 46.3704 37.6115V39.0885H46.4627Z" fill="#BFD8D0"/>
<path d="M37.1401 35.0255L36.8632 34.6562H17.5709L15.3555 37.5178H28.2785C31.3247 37.5178 34.4632 36.687 37.1401 35.0255Z" fill="#9EC6B8"/>
<path d="M41.3928 30.4981C44.2183 28.8668 45.269 25.3969 43.7396 22.748C42.2102 20.0991 38.6799 19.2742 35.8543 20.9055C33.0288 22.5369 31.9781 26.0068 33.5075 28.6557C35.0369 31.3046 38.5673 32.1295 41.3928 30.4981Z" fill="#E89715"/>
<path d="M40.2757 30.9638C40.1834 30.7792 40.091 30.5023 39.9987 30.3177C38.7064 28.01 35.7526 27.0869 33.168 28.01C33.2603 28.1946 33.3526 28.4715 33.4449 28.6561C34.8295 30.9638 37.691 31.8869 40.2757 30.9638Z" fill="#E57417"/>
<path d="M43.7839 22.7513C42.4916 20.4436 39.5377 19.5205 36.9531 20.4436C37.23 20.9051 38.1531 22.1974 40.0916 22.4743V24.1359L40.9224 26.4436C40.9224 26.4436 37.507 29.582 37.3224 31.2436C38.6147 31.4282 40.0916 31.2436 41.3839 30.5051C44.2454 28.8436 45.2608 25.3359 43.7839 22.7513Z" fill="#263047"/>
<path d="M36.9531 20.4414C37.23 20.9029 38.1531 22.1953 40.0916 22.4722" stroke="#263047" stroke-width="0.461538" stroke-miterlimit="10" stroke-linecap="round"/>
<path d="M23.4759 25.4259C23.4759 25.4259 29.2913 24.5951 31.9682 27.0874C32.4297 27.4567 32.8913 27.7336 33.4451 27.9182L33.7221 28.0105C34.4605 28.1951 35.0144 28.5644 35.4759 29.1182L37.9682 32.2567C35.2913 33.8259 32.2451 34.749 29.1067 34.749H16.1836" fill="#DB7158"/>
<path d="M29.2944 34.6571H23.3867V29.2109H29.2944C30.7713 29.2109 31.9713 30.4109 31.9713 31.8879C31.9713 33.4571 30.7713 34.6571 29.2944 34.6571Z" fill="#E89715"/>
<path d="M31.9713 31.9805C31.9713 33.4574 30.7713 34.6574 29.2944 34.6574H23.3867" stroke="#263047" stroke-width="0.461538" stroke-miterlimit="10" stroke-linecap="round"/>
<path d="M33.7227 28.0117C34.4611 28.1963 35.015 28.5656 35.4765 29.1194L37.9688 32.2579" stroke="#263047" stroke-width="0.461538" stroke-miterlimit="10" stroke-linecap="round"/>
<path d="M45.8171 27.5501C47.4786 29.7654 45.4478 31.7962 42.6786 33.7347C39.9094 35.7655 37.4171 36.9655 35.7555 34.7501C34.094 32.5347 36.8632 31.6116 39.6324 29.5808C42.494 27.6424 44.2478 25.3347 45.8171 27.5501Z" fill="#BFD8D0"/>
<path d="M52.0003 53.7638H3.07722C1.78492 53.7638 0.769531 52.7484 0.769531 51.4561C0.769531 50.1638 1.78492 49.1484 3.07722 49.1484H52.0003C53.2926 49.1484 54.308 50.1638 54.308 51.4561C54.308 52.7484 53.2926 53.7638 52.0003 53.7638Z" fill="#BFD8D0"/>
<path d="M49.5089 21.7344H48.7704C47.4781 21.7344 46.3704 22.8421 46.3704 24.1344V34.9344C46.3704 37.1498 44.5243 38.9959 42.3089 38.9959H3.07812V45.4575H44.3397C45.4474 45.4575 46.4627 46.1036 46.9243 47.119L47.6627 48.6882C47.755 48.9651 48.032 49.1498 48.4012 49.1498H51.1704C51.632 49.1498 52.0012 48.7805 52.0012 48.319V45.4575V42.6882V39.0882V24.1344C52.0012 22.8421 50.8935 21.7344 49.5089 21.7344Z" fill="#263047"/>
<path d="M35.199 33.5508C33.2605 34.2892 31.2297 34.6585 29.1067 34.6585H16.1836" stroke="#263047" stroke-width="0.461538" stroke-miterlimit="10" stroke-linecap="round"/>
<path d="M3.07812 26.5328V42.1328H9.17043C10.3704 42.1328 11.2935 41.2097 11.2935 40.0097C11.2935 38.8097 12.2166 37.8866 13.4166 37.8866H17.6627C18.8627 37.8866 19.7858 38.8097 19.7858 40.0097C19.7858 42.3174 21.632 44.0712 23.8474 44.0712H24.2166C26.155 44.0712 27.632 42.502 27.632 40.6558V29.8558C27.632 27.0866 25.6935 24.5943 22.9243 24.0404C15.4474 22.5635 7.69351 23.9481 4.46274 24.6866C3.72428 24.7789 3.07812 25.6097 3.07812 26.5328Z" fill="#75C6A8"/>
<path d="M6.56359 35.0413C7.14036 34.4646 7.40337 33.7924 7.15103 33.5401C6.89869 33.2878 6.22657 33.5508 5.6498 34.1275C5.07303 34.7043 4.81003 35.3764 5.06236 35.6288C5.3147 35.8811 5.98682 35.6181 6.56359 35.0413Z" fill="#57B5B5"/>
<path d="M4.55578 37.0804C5.13255 36.5036 5.39555 35.8315 5.14322 35.5792C4.89088 35.3268 4.21876 35.5898 3.64199 36.1666C3.06522 36.7434 2.80222 37.4155 3.05455 37.6678C3.30689 37.9202 3.97901 37.6572 4.55578 37.0804Z" fill="#57B5B5"/>
<path d="M5.12759 35.6435C5.37993 35.3912 5.11692 34.719 4.54016 34.1423C3.96339 33.5655 3.29126 33.3025 3.03893 33.5548C2.78659 33.8072 3.0496 34.4793 3.62636 35.0561C4.20313 35.6328 4.87526 35.8958 5.12759 35.6435Z" fill="#9EC6B8"/>
<path d="M7.16665 37.6513C7.41899 37.399 7.15599 36.7268 6.57922 36.1501C6.00245 35.5733 5.33033 35.3103 5.07799 35.5626C4.82565 35.815 5.08866 36.4871 5.66543 37.0639C6.2422 37.6406 6.91432 37.9036 7.16665 37.6513Z" fill="#9EC6B8"/>
<path d="M10.712 35.0257C11.2888 34.4489 11.5518 33.7768 11.2995 33.5245C11.0471 33.2721 10.375 33.5351 9.79824 34.1119C9.22147 34.6887 8.95847 35.3608 9.2108 35.6131C9.46314 35.8655 10.1353 35.6025 10.712 35.0257Z" fill="#57B5B5"/>
<path d="M8.70422 37.0648C9.28098 36.488 9.54399 35.8159 9.29165 35.5635C9.03932 35.3112 8.3672 35.5742 7.79043 36.151C7.21366 36.7277 6.95065 37.3999 7.20299 37.6522C7.45533 37.9045 8.12745 37.6415 8.70422 37.0648Z" fill="#57B5B5"/>
<path d="M9.27603 35.6279C9.52837 35.3755 9.26536 34.7034 8.68859 34.1266C8.11182 33.5499 7.4397 33.2869 7.18736 33.5392C6.93503 33.7915 7.19803 34.4637 7.7748 35.0404C8.35157 35.6172 9.02369 35.8802 9.27603 35.6279Z" fill="#9EC6B8"/>
<path d="M11.3151 37.6357C11.5674 37.3833 11.3044 36.7112 10.7277 36.1344C10.1509 35.5577 9.47876 35.2947 9.22643 35.547C8.97409 35.7993 9.2371 36.4715 9.81386 37.0482C10.3906 37.625 11.0628 37.888 11.3151 37.6357Z" fill="#9EC6B8"/>
<path d="M14.8566 35.014C15.4333 34.4372 15.6963 33.7651 15.444 33.5128C15.1917 33.2604 14.5195 33.5234 13.9428 34.1002C13.366 34.677 13.103 35.3491 13.3553 35.6014C13.6077 35.8538 14.2798 35.5908 14.8566 35.014Z" fill="#57B5B5"/>
<path d="M12.8487 37.0531C13.4255 36.4763 13.6885 35.8042 13.4362 35.5518C13.1838 35.2995 12.5117 35.5625 11.935 36.1393C11.3582 36.716 11.0952 37.3882 11.3475 37.6405C11.5999 37.8928 12.272 37.6298 12.8487 37.0531Z" fill="#57B5B5"/>
<path d="M13.4206 35.6161C13.6729 35.3638 13.4099 34.6917 12.8331 34.1149C12.2564 33.5381 11.5842 33.2751 11.3319 33.5275C11.0796 33.7798 11.3426 34.4519 11.9193 35.0287C12.4961 35.6055 13.1682 35.8685 13.4206 35.6161Z" fill="#9EC6B8"/>
<path d="M15.4596 37.624C15.712 37.3716 15.449 36.6995 14.8722 36.1227C14.2954 35.546 13.6233 35.283 13.371 35.5353C13.1186 35.7876 13.3816 36.4598 13.9584 37.0365C14.5352 37.6133 15.2073 37.8763 15.4596 37.624Z" fill="#9EC6B8"/>
<path d="M18.9386 35.0609C19.5154 34.4841 19.7784 33.812 19.526 33.5596C19.2737 33.3073 18.6016 33.5703 18.0248 34.1471C17.448 34.7238 17.185 35.396 17.4374 35.6483C17.6897 35.9006 18.3618 35.6376 18.9386 35.0609Z" fill="#57B5B5"/>
<path d="M16.9972 37.0335C17.574 36.4568 17.837 35.7846 17.5846 35.5323C17.3323 35.28 16.6602 35.543 16.0834 36.1197C15.5066 36.6965 15.2436 37.3686 15.496 37.621C15.7483 37.8733 16.4204 37.6103 16.9972 37.0335Z" fill="#57B5B5"/>
<path d="M17.569 35.6005C17.8213 35.3482 17.5583 34.6761 16.9816 34.0993C16.4048 33.5225 15.7327 33.2595 15.4803 33.5119C15.228 33.7642 15.491 34.4363 16.0678 35.0131C16.6445 35.5899 17.3167 35.8529 17.569 35.6005Z" fill="#9EC6B8"/>
<path d="M19.5456 37.6747C19.7979 37.4224 19.5349 36.7503 18.9581 36.1735C18.3814 35.5967 17.7092 35.3337 17.4569 35.5861C17.2046 35.8384 17.4676 36.5105 18.0443 37.0873C18.6211 37.6641 19.2932 37.9271 19.5456 37.6747Z" fill="#9EC6B8"/>
<path d="M23.087 35.0413C23.6638 34.4646 23.9268 33.7924 23.6745 33.5401C23.4221 33.2878 22.75 33.5508 22.1732 34.1275C21.5965 34.7043 21.3335 35.3764 21.5858 35.6288C21.8381 35.8811 22.5103 35.6181 23.087 35.0413Z" fill="#57B5B5"/>
<path d="M21.1456 37.014C21.7224 36.4372 21.9854 35.7651 21.7331 35.5128C21.4807 35.2604 20.8086 35.5234 20.2318 36.1002C19.6551 36.677 19.3921 37.3491 19.6444 37.6014C19.8967 37.8538 20.5689 37.5908 21.1456 37.014Z" fill="#57B5B5"/>
<path d="M21.7174 35.581C21.9698 35.3287 21.7068 34.6565 21.13 34.0798C20.5532 33.503 19.8811 33.24 19.6288 33.4923C19.3764 33.7447 19.6394 34.4168 20.2162 34.9936C20.793 35.5703 21.4651 35.8333 21.7174 35.581Z" fill="#9EC6B8"/>
<path d="M23.694 37.6552C23.9463 37.4029 23.6833 36.7307 23.1066 36.154C22.5298 35.5772 21.8577 35.3142 21.6053 35.5665C21.353 35.8189 21.616 36.491 22.1928 37.0678C22.7695 37.6445 23.4417 37.9075 23.694 37.6552Z" fill="#9EC6B8"/>
<path d="M27.2355 35.0296C27.8122 34.4528 28.0752 33.7807 27.8229 33.5284C27.5706 33.2761 26.8984 33.5391 26.3217 34.1158C25.7449 34.6926 25.4819 35.3647 25.7342 35.6171C25.9866 35.8694 26.6587 35.6064 27.2355 35.0296Z" fill="#57B5B5"/>
<path d="M25.2277 37.0687C25.8044 36.4919 26.0674 35.8198 25.8151 35.5674C25.5628 35.3151 24.8906 35.5781 24.3139 36.1549C23.7371 36.7317 23.4741 37.4038 23.7264 37.6561C23.9788 37.9085 24.6509 37.6454 25.2277 37.0687Z" fill="#57B5B5"/>
<path d="M25.7995 35.6318C26.0518 35.3794 25.7888 34.7073 25.212 34.1305C24.6353 33.5538 23.9631 33.2908 23.7108 33.5431C23.4585 33.7954 23.7215 34.4676 24.2982 35.0443C24.875 35.6211 25.5471 35.8841 25.7995 35.6318Z" fill="#9EC6B8"/>
<path d="M27.8385 37.6396C28.0909 37.3872 27.8279 36.7151 27.2511 36.1384C26.6743 35.5616 26.0022 35.2986 25.7499 35.5509C25.4975 35.8033 25.7605 36.4754 26.3373 37.0521C26.9141 37.6289 27.5862 37.8919 27.8385 37.6396Z" fill="#9EC6B8"/>
<path d="M6.57531 28.1156C7.15208 27.5388 7.41508 26.8667 7.16275 26.6143C6.91041 26.362 6.23829 26.625 5.66152 27.2018C5.08475 27.7785 4.82175 28.4507 5.07408 28.703C5.32642 28.9553 5.99854 28.6923 6.57531 28.1156Z" fill="#57B5B5"/>
<path d="M4.5675 30.1546C5.14427 29.5778 5.40727 28.9057 5.15494 28.6534C4.9026 28.4011 4.23048 28.6641 3.65371 29.2408C3.07694 29.8176 2.81393 30.4897 3.06627 30.7421C3.31861 30.9944 3.99073 30.7314 4.5675 30.1546Z" fill="#57B5B5"/>
<path d="M5.13931 28.7177C5.39165 28.4654 5.12864 27.7932 4.55187 27.2165C3.9751 26.6397 3.30298 26.3767 3.05065 26.629C2.79831 26.8814 3.06131 27.5535 3.63808 28.1303C4.21485 28.707 4.88697 28.97 5.13931 28.7177Z" fill="#9EC6B8"/>
<path d="M7.17837 30.7255C7.43071 30.4732 7.16771 29.8011 6.59094 29.2243C6.01417 28.6475 5.34204 28.3845 5.08971 28.6369C4.83737 28.8892 5.10038 29.5613 5.67715 30.1381C6.25391 30.7149 6.92604 30.9779 7.17837 30.7255Z" fill="#9EC6B8"/>
<path d="M10.7237 28.0999C11.3005 27.5232 11.5635 26.851 11.3112 26.5987C11.0588 26.3464 10.3867 26.6094 9.80996 27.1861C9.23319 27.7629 8.97018 28.435 9.22252 28.6874C9.47486 28.9397 10.147 28.6767 10.7237 28.0999Z" fill="#57B5B5"/>
<path d="M8.71593 30.139C9.2927 29.5622 9.55571 28.8901 9.30337 28.6378C9.05104 28.3854 8.37891 28.6484 7.80215 29.2252C7.22538 29.802 6.96237 30.4741 7.21471 30.7264C7.46704 30.9788 8.13917 30.7158 8.71593 30.139Z" fill="#57B5B5"/>
<path d="M9.28775 28.7021C9.54008 28.4497 9.27708 27.7776 8.70031 27.2009C8.12354 26.6241 7.45142 26.3611 7.19908 26.6134C6.94675 26.8658 7.20975 27.5379 7.78652 28.1146C8.36329 28.6914 9.03541 28.9544 9.28775 28.7021Z" fill="#9EC6B8"/>
<path d="M11.3268 30.7099C11.5791 30.4576 11.3161 29.7854 10.7394 29.2087C10.1626 28.6319 9.49048 28.3689 9.23815 28.6212C8.98581 28.8736 9.24881 29.5457 9.82558 30.1225C10.4024 30.6992 11.0745 30.9622 11.3268 30.7099Z" fill="#9EC6B8"/>
<path d="M14.8722 28.0804C15.449 27.5036 15.712 26.8315 15.4596 26.5792C15.2073 26.3268 14.5352 26.5898 13.9584 27.1666C13.3816 27.7434 13.1186 28.4155 13.371 28.6678C13.6233 28.9202 14.2954 28.6572 14.8722 28.0804Z" fill="#57B5B5"/>
<path d="M12.8644 30.1195C13.4411 29.5427 13.7041 28.8706 13.4518 28.6182C13.1995 28.3659 12.5274 28.6289 11.9506 29.2057C11.3738 29.7824 11.1108 30.4546 11.3631 30.7069C11.6155 30.9592 12.2876 30.6962 12.8644 30.1195Z" fill="#57B5B5"/>
<path d="M13.4362 28.6865C13.6885 28.4341 13.4255 27.762 12.8487 27.1852C12.272 26.6085 11.5999 26.3455 11.3475 26.5978C11.0952 26.8501 11.3582 27.5223 11.935 28.099C12.5117 28.6758 13.1838 28.9388 13.4362 28.6865Z" fill="#9EC6B8"/>
<path d="M15.4752 30.6943C15.7276 30.4419 15.4646 29.7698 14.8878 29.193C14.311 28.6163 13.6389 28.3533 13.3866 28.6056C13.1342 28.8579 13.3973 29.5301 13.974 30.1068C14.5508 30.6836 15.2229 30.9466 15.4752 30.6943Z" fill="#9EC6B8"/>
<path d="M18.9503 28.1351C19.5271 27.5583 19.7901 26.8862 19.5377 26.6339C19.2854 26.3815 18.6133 26.6445 18.0365 27.2213C17.4598 27.7981 17.1967 28.4702 17.4491 28.7225C17.7014 28.9749 18.3735 28.7119 18.9503 28.1351Z" fill="#57B5B5"/>
<path d="M17.0089 30.1077C17.5857 29.531 17.8487 28.8588 17.5963 28.6065C17.344 28.3542 16.6719 28.6172 16.0951 29.1939C15.5183 29.7707 15.2553 30.4428 15.5077 30.6952C15.76 30.9475 16.4321 30.6845 17.0089 30.1077Z" fill="#57B5B5"/>
<path d="M17.5807 28.6747C17.8331 28.4224 17.57 27.7503 16.9933 27.1735C16.4165 26.5967 15.7444 26.3337 15.4921 26.5861C15.2397 26.8384 15.5027 27.5105 16.0795 28.0873C16.6563 28.6641 17.3284 28.9271 17.5807 28.6747Z" fill="#9EC6B8"/>
<path d="M19.5573 30.749C19.8096 30.4966 19.5466 29.8245 18.9698 29.2477C18.3931 28.671 17.721 28.408 17.4686 28.6603C17.2163 28.9126 17.4793 29.5848 18.0561 30.1615C18.6328 30.7383 19.3049 31.0013 19.5573 30.749Z" fill="#9EC6B8"/>
<path d="M23.0987 28.1156C23.6755 27.5388 23.9385 26.8667 23.6862 26.6143C23.4338 26.362 22.7617 26.625 22.185 27.2018C21.6082 27.7785 21.3452 28.4507 21.5975 28.703C21.8499 28.9553 22.522 28.6923 23.0987 28.1156Z" fill="#57B5B5"/>
<path d="M21.1573 30.0882C21.7341 29.5114 21.9971 28.8393 21.7448 28.587C21.4924 28.3346 20.8203 28.5976 20.2436 29.1744C19.6668 29.7512 19.4038 30.4233 19.6561 30.6756C19.9085 30.928 20.5806 30.665 21.1573 30.0882Z" fill="#57B5B5"/>
<path d="M21.7292 28.6552C21.9815 28.4029 21.7185 27.7307 21.1417 27.154C20.5649 26.5772 19.8928 26.3142 19.6405 26.5665C19.3882 26.8189 19.6512 27.491 20.2279 28.0678C20.8047 28.6445 21.4768 28.9075 21.7292 28.6552Z" fill="#9EC6B8"/>
<path d="M23.7057 30.7294C23.9581 30.4771 23.695 29.805 23.1183 29.2282C22.5415 28.6514 21.8694 28.3884 21.6171 28.6408C21.3647 28.8931 21.6277 29.5652 22.2045 30.142C22.7813 30.7188 23.4534 30.9818 23.7057 30.7294Z" fill="#9EC6B8"/>
<path d="M27.2621 28.1034C27.3544 28.0111 27.4467 27.9188 27.4467 27.8264C27.3544 27.4572 27.1698 27.088 26.9852 26.7188C26.7082 26.8111 26.5236 26.9034 26.339 27.1803C25.9698 27.5495 25.7852 28.1034 25.7852 28.6572C26.339 28.7495 26.8928 28.5649 27.2621 28.1034Z" fill="#57B5B5"/>
<path d="M25.2394 30.1429C25.8161 29.5661 26.0791 28.894 25.8268 28.6417C25.5745 28.3893 24.9024 28.6523 24.3256 29.2291C23.7488 29.8059 23.4858 30.478 23.7381 30.7303C23.9905 30.9827 24.6626 30.7197 25.2394 30.1429Z" fill="#57B5B5"/>
<path d="M25.8112 28.7099C26.0635 28.4576 25.8005 27.7854 25.2237 27.2087C24.647 26.6319 23.9749 26.3689 23.7225 26.6212C23.4702 26.8736 23.7332 27.5457 24.31 28.1225C24.8867 28.6992 25.5588 28.9622 25.8112 28.7099Z" fill="#9EC6B8"/>
<path d="M27.8502 30.7177C28.1026 30.4654 27.8396 29.7932 27.2628 29.2165C26.686 28.6397 26.0139 28.3767 25.7616 28.629C25.5092 28.8814 25.7723 29.5535 26.349 30.1303C26.9258 30.707 27.5979 30.97 27.8502 30.7177Z" fill="#9EC6B8"/>
<path d="M3.07812 42.1353H9.17043C10.3704 42.1353 11.2935 41.2122 11.2935 40.0122C11.2935 38.8122 12.2166 37.8891 13.4166 37.8891H17.6627C18.8627 37.8891 19.7858 38.8122 19.7858 40.0122C19.7858 42.3199 21.632 44.0737 23.8474 44.0737H24.2166C26.155 44.0737 27.632 42.5045 27.632 40.6584V29.8584C27.632 27.0891 25.6935 24.5968 22.9243 24.043" stroke="#263047" stroke-width="0.461538" stroke-miterlimit="10" stroke-linecap="round"/>
<path d="M34.091 24.0415C34.6008 24.0415 35.0141 23.6282 35.0141 23.1184C35.0141 22.6086 34.6008 22.1953 34.091 22.1953C33.5812 22.1953 33.168 22.6086 33.168 23.1184C33.168 23.6282 33.5812 24.0415 34.091 24.0415Z" fill="#E89715"/>
<path d="M34 25.4253C34.7385 24.7791 35.7538 24.8715 36.4 25.5176" stroke="#263047" stroke-width="0.461538" stroke-miterlimit="10" stroke-linecap="round"/>
<path d="M37.3236 22.8423C36.9543 23.2115 36.3082 23.1192 36.0312 22.75" stroke="#263047" stroke-width="0.461538" stroke-miterlimit="10" stroke-linecap="round"/>
<path d="M40.9222 26.5359C41.7379 26.5359 42.3992 25.8746 42.3992 25.059C42.3992 24.2433 41.7379 23.582 40.9222 23.582C40.1066 23.582 39.4453 24.2433 39.4453 25.059C39.4453 25.8746 40.1066 26.5359 40.9222 26.5359Z" fill="#E89715"/>
<path d="M29.202 16.474L27.8174 18.5048C27.7251 18.6894 27.3558 18.6894 27.2635 18.5048L25.8789 16.474L27.5404 14.8125L29.202 16.474Z" fill="#75C6A8"/>
<path d="M25.8789 16.474L26.6174 17.674C27.0789 17.8587 27.5404 18.0433 28.0943 18.1356L29.202 16.5663L27.5404 14.8125L25.8789 16.474Z" fill="#57B5B5"/>
<path d="M27.5388 17.765C32.3819 17.765 36.308 13.8389 36.308 8.99579C36.308 4.15268 32.3819 0.226562 27.5388 0.226562C22.6956 0.226562 18.7695 4.15268 18.7695 8.99579C18.7695 13.8389 22.6956 17.765 27.5388 17.765Z" fill="#75C6A8"/>
<path d="M25.6919 12.4113L25.3227 12.0421C24.8612 11.5805 24.8612 10.8421 25.3227 10.4728L30.215 5.58053C30.6766 5.11899 31.415 5.11899 31.7843 5.58053L32.1535 5.94976C32.615 6.4113 32.615 7.14976 32.1535 7.51899L27.2612 12.4113C26.7996 12.8728 26.1535 12.8728 25.6919 12.4113Z" fill="white"/>
<path d="M23.5688 8.71929L23.938 8.35006C24.3996 7.88852 25.138 7.88852 25.5073 8.35006L27.6303 10.4731C28.0919 10.9347 28.0919 11.6731 27.6303 12.0424L27.2611 12.4116C26.7996 12.8731 26.0611 12.8731 25.6919 12.4116L23.5688 10.2885C23.1073 9.82698 23.1073 9.18083 23.5688 8.71929Z" fill="white"/>
<path d="M39.17 15.6438C38.3392 14.813 38.3392 13.4284 39.17 12.5977" stroke="#263047" stroke-width="0.461538" stroke-miterlimit="10" stroke-linecap="round"/>
<path d="M39.1719 15.6445C40.0026 16.4753 40.0026 17.8599 39.1719 18.6907" stroke="#263047" stroke-width="0.461538" stroke-miterlimit="10" stroke-linecap="round"/>
<path d="M41.7559 15.6438C40.9251 14.813 40.9251 13.4284 41.7559 12.5977" stroke="#263047" stroke-width="0.461538" stroke-miterlimit="10" stroke-linecap="round"/>
<path d="M41.7578 15.6445C42.5886 16.4753 42.5886 17.8599 41.7578 18.6907" stroke="#263047" stroke-width="0.461538" stroke-miterlimit="10" stroke-linecap="round"/>
<path d="M44.4317 15.6438C43.6009 14.813 43.6009 13.4284 44.4317 12.5977" stroke="#263047" stroke-width="0.461538" stroke-miterlimit="10" stroke-linecap="round"/>
<path d="M44.4336 15.6445C45.2644 16.4753 45.2644 17.8599 44.4336 18.6907" stroke="#263047" stroke-width="0.461538" stroke-miterlimit="10" stroke-linecap="round"/>
</svg>
