<svg width="48" height="47" viewBox="0 0 48 47" fill="none" xmlns="http://www.w3.org/2000/svg">
<path d="M8.10281 8.73956C12.2906 8.37746 14.5184 9.88098 15.3922 10.6997C17.4708 11.748 19.7632 12.3029 22.0911 12.3213C24.4897 12.3167 26.8472 11.6989 28.9397 10.5265C29.9158 9.69993 32.1199 8.40107 36.0401 8.73956C36.4159 8.77099 36.7888 8.65234 37.0773 8.40956C37.3659 8.16678 37.5466 7.81963 37.5799 7.44401C37.6132 7.06839 37.4964 6.69487 37.255 6.40513C37.0137 6.11538 36.6674 5.93298 36.292 5.89781C33.3601 5.51621 30.3873 6.17652 27.8927 7.76345L29.4435 2.89076C29.5381 2.59048 29.5607 2.27212 29.5093 1.9615C29.4579 1.65088 29.334 1.35674 29.1477 1.10295C28.9614 0.849154 28.7179 0.642848 28.4369 0.500764C28.1559 0.35868 27.8454 0.284817 27.5306 0.285168H16.6202C16.3009 0.284069 15.986 0.35944 15.7018 0.504977C15.4176 0.650513 15.1723 0.861985 14.9866 1.1217C14.8009 1.38142 14.68 1.68184 14.6342 1.99783C14.5883 2.31382 14.6188 2.63619 14.7231 2.93799L16.4076 7.87366C14.8096 6.74798 12.0624 5.52784 7.85878 5.89781C7.48194 5.93018 7.13339 6.11091 6.88981 6.40026C6.64622 6.6896 6.52756 7.06386 6.55992 7.4407C6.59228 7.81754 6.77301 8.16609 7.06236 8.40967C7.35171 8.65326 7.72597 8.77192 8.10281 8.73956Z" fill="#2C7DA0"/>
<path d="M40.7147 33.0552C40.2128 31.9938 39.9181 30.8463 39.8464 29.6744C38.0996 29.5491 36.4315 28.8989 35.0606 27.8092C33.6897 26.7194 32.68 25.2409 32.1639 23.5674C31.6477 21.8939 31.6493 20.1035 32.1682 18.4309C32.6872 16.7583 33.6994 15.2814 35.0721 14.194C33.9161 13.1018 32.5343 12.2768 31.0243 11.7773C28.3905 13.4838 25.3225 14.399 22.1842 14.4144C18.9983 14.3859 15.878 13.5053 13.1473 11.8639C5.20459 14.7057 4.51187 24.577 4.60633 28.8751C4.63535 30.32 4.32531 31.7516 3.70107 33.055L1.14271 38.4158C0.73697 39.2631 0.552645 40.1995 0.606951 41.1374C0.661256 42.0753 0.952421 42.9842 1.45324 43.7791C1.95406 44.5739 2.6482 45.2289 3.47079 45.6827C4.29339 46.1365 5.2176 46.3745 6.15709 46.3742H38.2586C39.1984 46.3747 40.1229 46.1371 40.946 45.6836C41.7691 45.23 42.4638 44.5753 42.9653 43.7805C43.4668 42.9858 43.7588 42.0769 43.814 41.1388C43.8692 40.2007 43.6858 39.2638 43.2809 38.4158L40.7147 33.0552ZM23.5632 37.5723H23.2526V40.1779C23.2526 40.4911 23.1282 40.7914 22.9068 41.0128C22.6853 41.2343 22.385 41.3587 22.0718 41.3587C21.7587 41.3587 21.4583 41.2343 21.2369 41.0128C21.0154 40.7914 20.891 40.4911 20.891 40.1779V37.5723H17.4402C17.2851 37.5723 17.1316 37.5418 16.9883 37.4824C16.845 37.4231 16.7149 37.3361 16.6052 37.2265C16.4956 37.1168 16.4086 36.9866 16.3493 36.8434C16.2899 36.7001 16.2594 36.5466 16.2594 36.3915C16.2594 36.2365 16.2899 36.0829 16.3493 35.9397C16.4086 35.7964 16.4956 35.6662 16.6052 35.5566C16.7149 35.4469 16.845 35.36 16.9883 35.3006C17.1316 35.2413 17.2851 35.2107 17.4402 35.2107H23.5632C24.0831 35.2107 24.5816 35.0042 24.9492 34.6366C25.3168 34.269 25.5233 33.7705 25.5233 33.2506C25.5233 32.7308 25.3168 32.2322 24.9492 31.8646C24.5816 31.4971 24.0831 31.2905 23.5632 31.2905H20.8165C19.6078 31.2905 18.4487 30.8104 17.594 29.9558C16.7394 29.1011 16.2592 27.9419 16.2592 26.7333C16.2592 25.5246 16.7394 24.3655 17.594 23.5108C18.4487 22.6562 19.6078 22.176 20.8165 22.176H20.891V19.2921C20.891 18.9789 21.0154 18.6786 21.2369 18.4571C21.4583 18.2357 21.7587 18.1113 22.0718 18.1113C22.385 18.1113 22.6853 18.2357 22.9068 18.4571C23.1282 18.6786 23.2526 18.9789 23.2526 19.2921V22.1764H26.1565C26.4697 22.1764 26.77 22.3008 26.9915 22.5222C27.2129 22.7437 27.3373 23.044 27.3373 23.3572C27.3373 23.6704 27.2129 23.9707 26.9915 24.1921C26.77 24.4136 26.4697 24.538 26.1565 24.538H20.8165C20.2342 24.538 19.6757 24.7693 19.2639 25.1811C18.8521 25.5928 18.6208 26.1513 18.6208 26.7337C18.6208 27.316 18.8521 27.8745 19.2639 28.2863C19.6757 28.698 20.2342 28.9294 20.8165 28.9294H23.5632C24.7094 28.9294 25.8086 29.3847 26.6191 30.1952C27.4296 31.0056 27.8849 32.1049 27.8849 33.251C27.8849 34.3972 27.4296 35.4964 26.6191 36.3069C25.8086 37.1174 24.7094 37.5723 23.5632 37.5723Z" fill="#2C7DA0"/>
<path d="M40.4828 14.4219C39.1814 14.4218 37.9091 14.8078 36.827 15.5308C35.7448 16.2538 34.9014 17.2815 34.4033 18.4839C33.9052 19.6863 33.7749 21.0094 34.0288 22.2859C34.2827 23.5624 34.9094 24.7349 35.8297 25.6552C36.7499 26.5755 37.9224 27.2022 39.1989 27.4561C40.4754 27.71 41.7985 27.5797 43.0009 27.0816C44.2033 26.5836 45.231 25.7402 45.9541 24.658C46.6771 23.5759 47.063 22.3036 47.063 21.0021C47.063 19.257 46.3697 17.5833 45.1357 16.3492C43.9017 15.1152 42.228 14.4219 40.4828 14.4219ZM43.2209 21.9604H41.5331V23.74C41.5307 24.017 41.419 24.2819 41.2222 24.477C41.0255 24.672 40.7596 24.7815 40.4826 24.7815C40.2055 24.7815 39.9397 24.672 39.7429 24.477C39.5462 24.2819 39.4344 24.017 39.432 23.74V21.9604H37.7448C37.4661 21.9604 37.1989 21.8497 37.0019 21.6527C36.8049 21.4556 36.6942 21.1884 36.6942 20.9098C36.6942 20.6312 36.8049 20.3639 37.0019 20.1669C37.1989 19.9699 37.4661 19.8592 37.7448 19.8592H39.432V18.2644C39.4308 18.1256 39.4571 17.9881 39.5094 17.8596C39.5616 17.731 39.6388 17.6142 39.7365 17.5156C39.8342 17.4171 39.9504 17.3389 40.0784 17.2855C40.2065 17.2322 40.3438 17.2047 40.4826 17.2047C40.6213 17.2047 40.7587 17.2322 40.8867 17.2855C41.0148 17.3389 41.131 17.4171 41.2286 17.5156C41.3263 17.6142 41.4035 17.731 41.4558 17.8596C41.508 17.9881 41.5343 18.1256 41.5331 18.2644V19.8592H43.2209C43.4995 19.8592 43.7668 19.9699 43.9638 20.1669C44.1608 20.3639 44.2715 20.6312 44.2715 20.9098C44.2715 21.1884 44.1608 21.4556 43.9638 21.6527C43.7668 21.8497 43.4995 21.9604 43.2209 21.9604Z" fill="#2C7DA0"/>
</svg>
