<svg width="26" height="29" viewBox="0 0 26 29" fill="none" xmlns="http://www.w3.org/2000/svg">
<path d="M24.9128 18.0872L22.375 15.5494V12.1875C22.3721 9.86422 21.5078 7.62455 19.9493 5.90155C18.3909 4.17855 16.2488 3.09462 13.9375 2.85938V0.9375H12.0625V2.85938C9.75116 3.09462 7.60915 4.17855 6.05066 5.90155C4.49217 7.62455 3.62791 9.86422 3.625 12.1875V15.5494L1.08719 18.0872C0.91136 18.263 0.812553 18.5014 0.8125 18.75V21.5625C0.8125 21.8111 0.911272 22.0496 1.08709 22.2254C1.2629 22.4012 1.50136 22.5 1.75 22.5H8.3125V23.2284C8.29211 24.4178 8.71132 25.5728 9.4898 26.4722C10.2683 27.3716 11.3513 27.9521 12.5312 28.1025C13.183 28.1671 13.841 28.0946 14.4631 27.8897C15.0851 27.6847 15.6573 27.3519 16.143 26.9125C16.6287 26.4731 17.017 25.9369 17.283 25.3384C17.549 24.74 17.6868 24.0924 17.6875 23.4375V22.5H24.25C24.4986 22.5 24.7371 22.4012 24.9129 22.2254C25.0887 22.0496 25.1875 21.8111 25.1875 21.5625V18.75C25.1874 18.5014 25.0886 18.263 24.9128 18.0872ZM15.8125 23.4375C15.8125 24.1834 15.5162 24.8988 14.9887 25.4262C14.4613 25.9537 13.7459 26.25 13 26.25C12.2541 26.25 11.5387 25.9537 11.0113 25.4262C10.4838 24.8988 10.1875 24.1834 10.1875 23.4375V22.5H15.8125V23.4375ZM23.3125 20.625H2.6875V19.1381L5.22531 16.6003C5.40114 16.4245 5.49995 16.1861 5.5 15.9375V12.1875C5.5 10.1984 6.29018 8.29072 7.6967 6.8842C9.10322 5.47768 11.0109 4.6875 13 4.6875C14.9891 4.6875 16.8968 5.47768 18.3033 6.8842C19.7098 8.29072 20.5 10.1984 20.5 12.1875V15.9375C20.5001 16.1861 20.5989 16.4245 20.7747 16.6003L23.3125 19.1381V20.625Z" fill="white"/>
</svg>
