<svg width="30" height="30" viewBox="0 0 30 30" fill="none" xmlns="http://www.w3.org/2000/svg">
<path d="M5.42089 6.25704C7.91464 6.04141 9.2412 6.93673 9.76152 7.42423C10.9993 8.04847 12.3643 8.3789 13.7506 8.38985C15.1788 8.38715 16.5827 8.01925 17.8287 7.3211C18.41 6.82891 19.7225 6.05548 22.0568 6.25704C22.2806 6.27575 22.5027 6.2051 22.6745 6.06053C22.8463 5.91596 22.9539 5.70924 22.9737 5.48557C22.9935 5.2619 22.924 5.03948 22.7803 4.86694C22.6366 4.6944 22.4304 4.58579 22.2068 4.56485C20.461 4.33761 18.6908 4.73081 17.2053 5.67579L18.1287 2.77423C18.1851 2.59542 18.1985 2.40584 18.1679 2.22088C18.1373 2.03591 18.0635 1.86076 17.9526 1.70963C17.8416 1.5585 17.6966 1.43565 17.5293 1.35105C17.362 1.26644 17.1771 1.22245 16.9896 1.22266H10.4928C10.3026 1.22201 10.1151 1.26689 9.94587 1.35355C9.77664 1.44022 9.63061 1.56614 9.52001 1.7208C9.40941 1.87546 9.33745 2.05435 9.31015 2.24251C9.28285 2.43067 9.301 2.62264 9.36308 2.80235L10.3662 5.74141C9.41464 5.0711 7.7787 4.34454 5.27558 4.56485C5.05118 4.58412 4.84363 4.69174 4.69858 4.86404C4.55353 5.03634 4.48287 5.2592 4.50214 5.4836C4.52141 5.708 4.62903 5.91555 4.80133 6.0606C4.97363 6.20565 5.19649 6.27631 5.42089 6.25704Z" fill="#373737"/>
<path d="M24.8408 20.7368C24.542 20.1048 24.3665 19.4215 24.3238 18.7237C23.2836 18.649 22.2903 18.2619 21.4739 17.6129C20.6576 16.964 20.0564 16.0836 19.749 15.0871C19.4417 14.0905 19.4426 13.0244 19.7516 12.0284C20.0606 11.0324 20.6634 10.153 21.4808 9.50547C20.7924 8.8551 19.9696 8.36384 19.0705 8.06641C17.5021 9.08255 15.6752 9.62753 13.8064 9.63672C11.9093 9.61976 10.0512 9.09537 8.42515 8.11797C3.69546 9.81016 3.28296 15.6883 3.33921 18.2477C3.35649 19.1081 3.17187 19.9606 2.80015 20.7367L1.27671 23.9289C1.03511 24.4335 0.925345 24.9911 0.957683 25.5496C0.990021 26.1081 1.1634 26.6493 1.46163 27.1226C1.75985 27.5959 2.17319 27.9859 2.66303 28.2562C3.15286 28.5264 3.70321 28.6681 4.26265 28.668H23.3783C23.9379 28.6683 24.4884 28.5268 24.9785 28.2567C25.4687 27.9866 25.8823 27.5967 26.181 27.1235C26.4796 26.6502 26.6535 26.109 26.6864 25.5504C26.7192 24.9918 26.61 24.4339 26.3689 23.9289L24.8408 20.7368ZM14.6276 23.4266H14.4426V24.9782C14.4426 25.1647 14.3685 25.3435 14.2366 25.4754C14.1048 25.6072 13.9259 25.6813 13.7395 25.6813C13.553 25.6813 13.3741 25.6072 13.2423 25.4754C13.1104 25.3435 13.0363 25.1647 13.0363 24.9782V23.4266H10.9814C10.8891 23.4266 10.7977 23.4085 10.7124 23.3731C10.627 23.3378 10.5495 23.286 10.4842 23.2207C10.419 23.1554 10.3672 23.0779 10.3318 22.9926C10.2965 22.9073 10.2783 22.8159 10.2783 22.7235C10.2783 22.6312 10.2965 22.5397 10.3318 22.4544C10.3672 22.3691 10.419 22.2916 10.4842 22.2263C10.5495 22.161 10.627 22.1092 10.7124 22.0739C10.7977 22.0386 10.8891 22.0204 10.9814 22.0204H14.6276C14.9371 22.0204 15.234 21.8974 15.4529 21.6785C15.6718 21.4596 15.7947 21.1628 15.7947 20.8532C15.7947 20.5436 15.6718 20.2468 15.4529 20.0279C15.234 19.809 14.9371 19.686 14.6276 19.686H12.9919C12.2722 19.686 11.582 19.4001 11.073 18.8912C10.5641 18.3823 10.2782 17.692 10.2782 16.9723C10.2782 16.2526 10.5641 15.5623 11.073 15.0534C11.582 14.5445 12.2722 14.2585 12.9919 14.2585H13.0363V12.5412C13.0363 12.3548 13.1104 12.1759 13.2423 12.044C13.3741 11.9122 13.553 11.8381 13.7395 11.8381C13.9259 11.8381 14.1048 11.9122 14.2366 12.044C14.3685 12.1759 14.4426 12.3548 14.4426 12.5412V14.2588H16.1718C16.3583 14.2588 16.5371 14.3329 16.669 14.4647C16.8009 14.5966 16.8749 14.7754 16.8749 14.9619C16.8749 15.1484 16.8009 15.3272 16.669 15.4591C16.5371 15.591 16.3583 15.665 16.1718 15.665H12.9919C12.6452 15.665 12.3126 15.8028 12.0674 16.048C11.8222 16.2932 11.6845 16.6257 11.6845 16.9725C11.6845 17.3193 11.8222 17.6518 12.0674 17.897C12.3126 18.1422 12.6452 18.28 12.9919 18.28H14.6276C15.3101 18.28 15.9646 18.5511 16.4473 19.0337C16.9299 19.5164 17.201 20.1709 17.201 20.8534C17.201 21.536 16.9299 22.1905 16.4473 22.6731C15.9646 23.1557 15.3101 23.4266 14.6276 23.4266Z" fill="#373737"/>
<path d="M24.7037 9.64063C23.9287 9.64061 23.1711 9.8704 22.5267 10.301C21.8823 10.7315 21.38 11.3435 21.0835 12.0595C20.7869 12.7755 20.7093 13.5633 20.8604 14.3235C21.0116 15.0836 21.3848 15.7818 21.9328 16.3298C22.4808 16.8778 23.179 17.251 23.9391 17.4022C24.6992 17.5534 25.4871 17.4758 26.2031 17.1792C26.9191 16.8826 27.5311 16.3804 27.9616 15.736C28.3922 15.0916 28.622 14.334 28.622 13.559C28.622 12.5198 28.2092 11.5232 27.4743 10.7883C26.7395 10.0535 25.7429 9.64065 24.7037 9.64063ZM26.3341 14.1296H25.3291V15.1893C25.3277 15.3543 25.2611 15.512 25.144 15.6282C25.0268 15.7443 24.8685 15.8095 24.7035 15.8095C24.5385 15.8095 24.3802 15.7443 24.2631 15.6282C24.1459 15.512 24.0794 15.3543 24.0779 15.1893V14.1296H23.0732C22.9073 14.1296 22.7482 14.0637 22.6309 13.9464C22.5135 13.8291 22.4476 13.6699 22.4476 13.504C22.4476 13.3381 22.5135 13.179 22.6309 13.0617C22.7482 12.9443 22.9073 12.8784 23.0732 12.8784H24.0779V11.9287C24.0772 11.8461 24.0929 11.7642 24.124 11.6877C24.1551 11.6111 24.2011 11.5415 24.2592 11.4829C24.3174 11.4242 24.3866 11.3776 24.4629 11.3459C24.5391 11.3141 24.6209 11.2977 24.7035 11.2977C24.7861 11.2977 24.8679 11.3141 24.9442 11.3459C25.0204 11.3776 25.0896 11.4242 25.1478 11.4829C25.2059 11.5415 25.2519 11.6111 25.283 11.6877C25.3141 11.7642 25.3298 11.8461 25.3291 11.9287V12.8784H26.3341C26.5 12.8784 26.6592 12.9443 26.7765 13.0617C26.8938 13.179 26.9597 13.3381 26.9597 13.504C26.9597 13.6699 26.8938 13.8291 26.7765 13.9464C26.6592 14.0637 26.5 14.1296 26.3341 14.1296Z" fill="#373737"/>
</svg>
