<svg width="80" height="79" viewBox="0 0 80 79" fill="none" xmlns="http://www.w3.org/2000/svg">
<path d="M11.6331 65.0478C8.20152 65.0478 5.43652 62.2828 5.43652 58.8759V16.7344C5.43652 13.325 8.19905 10.5625 11.6084 10.5625H61.7487C65.1581 10.5625 67.9206 13.325 67.9206 16.7344V58.8759C67.9206 62.2853 65.1581 65.0478 61.7487 65.0478H11.6331Z" fill="#CDF6F9"/>
<path d="M61.0003 71.1432C68.4897 71.1432 74.5611 65.0718 74.5611 57.5823C74.5611 50.0929 68.4897 44.0215 61.0003 44.0215C53.5108 44.0215 47.4395 50.0929 47.4395 57.5823C47.4395 65.0718 53.5108 71.1432 61.0003 71.1432Z" fill="white"/>
<path d="M40.097 62.8367H11.6323C9.44006 62.8367 7.65762 61.0642 7.65762 58.8867V16.7452C7.65762 14.5677 9.44006 12.7952 11.6323 12.7952H19.0361V13.279C19.0361 14.506 20.031 15.5009 21.258 15.5009C22.4849 15.5009 23.4798 14.506 23.4798 13.279V12.7976H34.4608V13.2815C34.4608 14.5085 35.4557 15.5034 36.6827 15.5034C37.9097 15.5034 38.9046 14.5085 38.9046 13.2815V12.7976H49.8856V13.2815C49.8856 14.5085 50.8805 15.5034 52.1075 15.5034C53.3344 15.5034 54.3293 14.5085 54.3293 13.2815V12.7976H61.7479C63.9254 12.7976 65.6979 14.5702 65.6979 16.7476V36.4976C65.6979 37.7246 66.6928 38.7195 67.9198 38.7195C69.1468 38.7195 70.1417 37.7246 70.1417 36.4976V16.7476C70.1417 12.1187 66.3768 8.35389 61.7479 8.35389H54.3293V7.85273C54.3293 6.62577 53.3344 5.63086 52.1075 5.63086C50.8805 5.63086 49.8856 6.62577 49.8856 7.85273V8.35142H38.9046V7.85273C38.9046 6.62577 37.9097 5.63086 36.6827 5.63086C35.4557 5.63086 34.4608 6.62577 34.4608 7.85273V8.35142H23.4774V7.85273C23.4774 6.62577 22.4825 5.63086 21.2555 5.63086C20.0285 5.63086 19.0336 6.62577 19.0336 7.85273V8.35142H11.6323C6.99106 8.35142 3.21387 12.1163 3.21387 16.7452V58.8867C3.21387 63.5156 6.98859 67.2805 11.6323 67.2805H40.097C41.324 67.2805 42.3189 66.2856 42.3189 65.0586C42.3189 63.8316 41.324 62.8367 40.097 62.8367Z" fill="#1A83A8"/>
<path d="M14.7473 25.1445C13.5203 25.1445 12.5254 26.1394 12.5254 27.3664C12.5254 28.5934 13.5203 29.5883 14.7473 29.5883H58.6194C59.8464 29.5883 60.8413 28.5934 60.8413 27.3664C60.8413 26.1394 59.8464 25.1445 58.6194 25.1445H14.7473Z" fill="#1A83A8"/>
<path d="M60.9991 41.7988C52.2967 41.7988 45.2139 48.8792 45.2139 57.584C45.2139 66.2888 52.2942 73.3692 60.9991 73.3692C69.7039 73.3692 76.7842 66.2888 76.7842 57.584C76.7842 48.8792 69.7014 41.7988 60.9991 41.7988ZM60.9991 68.9205C54.7482 68.9205 49.6601 63.8324 49.6601 57.5816C49.6601 51.3307 54.7482 46.2426 60.9991 46.2426C67.2499 46.2426 72.338 51.3307 72.338 57.5816C72.338 63.8324 67.2499 68.9205 60.9991 68.9205Z" fill="#1A83A8"/>
<path d="M63.2211 56.6599V52.5988C63.2211 51.3719 62.2262 50.377 60.9992 50.377C59.7722 50.377 58.7773 51.3719 58.7773 52.5988V57.5808C58.7773 58.1683 59.0143 58.7361 59.4291 59.1534L62.4533 62.1776C62.8878 62.6121 63.4556 62.8293 64.0259 62.8293C64.5962 62.8293 65.164 62.6121 65.5985 62.1776C66.4675 61.3086 66.4675 59.9014 65.5985 59.0349L63.2211 56.6599Z" fill="#1A83A8"/>
</svg>
