<svg width="80" height="79" viewBox="0 0 80 79" fill="none" xmlns="http://www.w3.org/2000/svg">
<g clip-path="url(#clip0_315_4865)">
<path d="M54.8125 64.1875C57.5394 64.1875 59.75 61.9769 59.75 59.25C59.75 56.5231 57.5394 54.3125 54.8125 54.3125C52.0856 54.3125 49.875 56.5231 49.875 59.25C49.875 61.9769 52.0856 64.1875 54.8125 64.1875Z" fill="#1A83A8"/>
<path d="M74.0117 57.9625C72.4862 54.0767 69.8539 50.724 66.4411 48.3198C63.0283 45.9157 58.9851 44.5658 54.8125 44.4375C50.6399 44.5658 46.5967 45.9157 43.1839 48.3198C39.7711 50.724 37.1388 54.0767 35.6133 57.9625L35.0625 59.25L35.6133 60.5375C37.1388 64.4233 39.7711 67.776 43.1839 70.1802C46.5967 72.5843 50.6399 73.9342 54.8125 74.0625C58.9851 73.9342 63.0283 72.5843 66.4411 70.1802C69.8539 67.776 72.4862 64.4233 74.0117 60.5375L74.5625 59.25L74.0117 57.9625ZM54.8125 69.125C52.8594 69.125 50.9502 68.5458 49.3262 67.4608C47.7023 66.3757 46.4366 64.8334 45.6892 63.029C44.9418 61.2246 44.7462 59.239 45.1272 57.3235C45.5083 55.4079 46.4488 53.6484 47.8298 52.2673C49.2109 50.8863 50.9704 49.9458 52.886 49.5647C54.8015 49.1837 56.7871 49.3793 58.5915 50.1267C60.3959 50.8741 61.9382 52.1398 63.0233 53.7637C64.1083 55.3877 64.6875 57.2969 64.6875 59.25C64.6846 61.8681 63.6432 64.3781 61.7919 66.2294C59.9406 68.0807 57.4306 69.1221 54.8125 69.125Z" fill="#1A83A8"/>
<path d="M30.125 69.1258H20.25V9.87585H40V24.6883C40.0038 25.9967 40.5252 27.2504 41.4503 28.1755C42.3755 29.1007 43.6292 29.6221 44.9375 29.6258H59.75V39.5008H64.6875V24.6883C64.6963 24.3639 64.6347 24.0413 64.5068 23.743C64.379 23.4447 64.1879 23.1776 63.9469 22.9602L46.6656 5.67897C46.4483 5.43785 46.1813 5.24675 45.8829 5.11889C45.5845 4.99102 45.262 4.92942 44.9375 4.93835H20.25C18.9417 4.94213 17.688 5.46354 16.7628 6.38868C15.8377 7.31383 15.3163 8.5675 15.3125 9.87585V69.1258C15.3163 70.4342 15.8377 71.6879 16.7628 72.613C17.688 73.5382 18.9417 74.0596 20.25 74.0633H30.125V69.1258ZM44.9375 10.8633L58.7625 24.6883H44.9375V10.8633Z" fill="#1A83A8"/>
</g>
<defs>
<clipPath id="clip0_315_4865">
<rect width="79" height="79" fill="white" transform="translate(0.5)"/>
</clipPath>
</defs>
</svg>
