<svg width="44" height="39" viewBox="0 0 44 39" fill="none" xmlns="http://www.w3.org/2000/svg">
<path d="M11.4266 8.78148C11.0409 8.78148 10.6478 8.80452 10.2836 8.89577C10.0704 8.9499 9.86011 9.04116 9.65492 9.12437C9.57555 9.15673 9.50423 9.2019 9.42633 9.23866C9.39396 9.25366 9.40146 9.27999 9.36927 9.29572C9.17579 9.39155 8.98011 9.46104 8.79779 9.58155C8.77219 9.5982 8.70891 9.6216 8.68349 9.63879C8.62991 9.67537 8.62168 9.71414 8.56919 9.75291C8.41997 9.86007 8.25209 9.97419 8.11201 10.096C7.98418 10.2108 7.88872 10.3685 7.76912 10.4959C7.3646 10.9109 6.96885 11.3529 6.6832 11.8675C6.19273 12.7276 5.86612 13.6697 5.71177 14.6679C5.63734 14.6521 5.54846 14.6463 5.48318 14.6679C4.98338 14.8302 4.87201 15.7819 5.19753 16.7823C5.38845 17.3693 5.67355 17.8356 5.99742 18.0971C6.43267 19.7887 7.36844 21.2133 8.56919 22.0966V23.0677L7.59758 23.982L5.71177 24.9549C4.1727 25.7175 2.62009 26.4783 1.08284 27.2409C0.230826 27.7548 -0.0842863 28.7514 -0.00307153 29.6987C0.0365794 30.2931 -0.194962 31.0721 0.396968 31.4689C0.959308 31.7579 1.67232 31.5933 2.28277 31.6408H5.59738C5.92967 31.2056 6.34498 30.8033 6.85465 30.4979L6.91171 30.4412H6.96895C9.54931 29.1739 12.0969 27.8809 14.6839 26.6118L17.6556 25.1835C17.4872 25.0994 17.3096 25.0372 17.1414 24.9549L15.2556 23.982L14.2839 23.0677V22.0966C15.0438 21.5388 15.686 20.7305 16.1699 19.8107C15.518 18.7573 15.0162 17.5467 14.6839 16.2684C14.1318 15.7015 13.6143 15.072 13.3123 14.1534C13.0016 13.2078 12.9129 12.2307 13.0267 11.4103C13.1274 10.6836 13.4766 9.99558 14.1696 9.63879C13.9656 9.50621 13.7 9.40288 13.4839 9.29572C13.3749 9.24232 13.3101 9.16972 13.1982 9.12437C13.1187 9.092 13.0505 9.09529 12.9696 9.06713C12.7266 8.983 12.4793 8.88169 12.2266 8.83853C12.2072 8.83561 12.1889 8.84182 12.1694 8.83853C11.9322 8.80123 11.6697 8.77873 11.4266 8.78148Z" fill="#2C7DA0"/>
<path d="M24.6844 0.914063C24.037 0.914063 23.3987 0.914018 22.7861 1.09689C22.4295 1.09689 22.082 1.2799 21.7382 1.46278C21.6047 1.46278 21.4694 1.46273 21.3377 1.64561H21.1878C20.8641 1.82848 20.5459 2.01145 20.2387 2.19432H20.0887C19.9991 2.3772 19.9278 2.37711 19.84 2.55998C19.5895 2.74286 19.3261 2.74295 19.0902 3.1087C18.8762 3.29157 18.6915 3.47431 18.4904 3.65719C17.8117 4.38869 17.2227 5.12028 16.743 6.03465C15.9192 7.31478 15.3042 8.96065 15.0447 10.6065H14.695C13.8556 10.9723 13.6489 12.4353 14.1956 14.0812C14.5163 15.1784 15.0501 15.9099 15.5942 16.2756C16.325 19.2016 17.873 21.5789 19.8894 23.0419V24.6878L18.291 26.1509L15.0946 27.7968C12.5096 29.0769 9.93457 30.357 7.35256 31.6372C5.92157 32.3687 5.368 34.1973 5.50443 35.6603C5.57099 36.7576 5.20945 38.0376 6.20356 38.5863C7.14811 39.1349 8.27498 38.7693 9.30055 38.7693H18.291H31.0777C34.8614 38.7693 38.6341 38.9522 42.4177 38.7693C43.6448 38.7693 43.985 37.4891 43.8661 36.3919C43.8881 34.9289 43.9758 33.2829 42.8164 32.1856C41.871 31.2713 40.525 30.9056 39.3711 30.1741C37.6758 29.4426 35.9696 28.5283 34.2762 27.7968L31.0777 26.1509L29.4793 24.6878V23.0419C31.4965 21.5789 33.0454 19.2016 33.7751 16.2756C34.32 15.9099 34.854 15.1784 35.1741 14.0812C35.7209 12.4353 35.5142 10.9723 34.6748 10.6065H34.3255C34.0658 8.96065 33.4514 7.31478 32.6266 6.03465C32.1475 5.12028 31.5586 4.38869 30.8783 3.65719C30.6772 3.47431 30.4943 3.29157 30.2785 3.1087H30.2291C29.6037 2.56007 28.9069 2.01136 28.1809 1.64561C27.9981 1.64561 27.8207 1.46278 27.6323 1.46278C27.4988 1.46278 27.369 1.27995 27.2318 1.27995C26.824 1.09707 26.4089 1.09694 25.9828 0.914063H25.884H24.6844Z" fill="#2C7DA0"/>
</svg>
