<svg width="43" height="42" viewBox="0 0 43 42" fill="none" xmlns="http://www.w3.org/2000/svg">
<path d="M17.0461 23.4951H3.21865C2.60743 23.4951 2.02125 23.7379 1.58906 24.17C1.15687 24.6022 0.914063 25.1884 0.914062 25.7996V39.6271C0.914063 40.2383 1.15687 40.8245 1.58906 41.2567C2.02125 41.6889 2.60743 41.9317 3.21865 41.9317H17.0461C17.6574 41.9317 18.2435 41.6889 18.6757 41.2567C19.1079 40.8245 19.3507 40.2383 19.3507 39.6271V25.7996C19.3507 25.1884 19.1079 24.6022 18.6757 24.17C18.2435 23.7379 17.6574 23.4951 17.0461 23.4951ZM14.7416 37.3226H5.52323V28.1042H14.7416V37.3226ZM40.092 0.449219H26.2645C25.6533 0.449219 25.0671 0.692022 24.6349 1.12422C24.2027 1.55641 23.9599 2.14259 23.9599 2.7538V16.5813C23.9599 17.1925 24.2027 17.7787 24.6349 18.2109C25.0671 18.6431 25.6533 18.8859 26.2645 18.8859H40.092C40.7032 18.8859 41.2894 18.6431 41.7216 18.2109C42.1538 17.7787 42.3966 17.1925 42.3966 16.5813V2.7538C42.3966 2.14259 42.1538 1.55641 41.7216 1.12422C41.2894 0.692022 40.7032 0.449219 40.092 0.449219ZM37.7874 14.2767H28.5691V5.05839H37.7874V14.2767ZM40.092 30.4088H35.4828V25.7996C35.4828 25.1884 35.24 24.6022 34.8078 24.17C34.3756 23.7379 33.7894 23.4951 33.1782 23.4951C32.567 23.4951 31.9808 23.7379 31.5486 24.17C31.1164 24.6022 30.8736 25.1884 30.8736 25.7996V30.4088H26.2645C25.6533 30.4088 25.0671 30.6516 24.6349 31.0838C24.2027 31.516 23.9599 32.1022 23.9599 32.7134C23.9599 33.3246 24.2027 33.9108 24.6349 34.343C25.0671 34.7752 25.6533 35.018 26.2645 35.018H30.8736V39.6271C30.8736 40.2383 31.1164 40.8245 31.5486 41.2567C31.9808 41.6889 32.567 41.9317 33.1782 41.9317C33.7894 41.9317 34.3756 41.6889 34.8078 41.2567C35.24 40.8245 35.4828 40.2383 35.4828 39.6271V35.018H40.092C40.7032 35.018 41.2894 34.7752 41.7216 34.343C42.1538 33.9108 42.3966 33.3246 42.3966 32.7134C42.3966 32.1022 42.1538 31.516 41.7216 31.0838C41.2894 30.6516 40.7032 30.4088 40.092 30.4088ZM17.0461 0.449219H3.21865C2.60743 0.449219 2.02125 0.692022 1.58906 1.12422C1.15687 1.55641 0.914063 2.14259 0.914062 2.7538V16.5813C0.914063 17.1925 1.15687 17.7787 1.58906 18.2109C2.02125 18.6431 2.60743 18.8859 3.21865 18.8859H17.0461C17.6574 18.8859 18.2435 18.6431 18.6757 18.2109C19.1079 17.7787 19.3507 17.1925 19.3507 16.5813V2.7538C19.3507 2.14259 19.1079 1.55641 18.6757 1.12422C18.2435 0.692022 17.6574 0.449219 17.0461 0.449219ZM14.7416 14.2767H5.52323V5.05839H14.7416V14.2767Z" fill="#2C7DA0"/>
</svg>
