<svg width="28" height="28" viewBox="0 0 28 28" fill="none" xmlns="http://www.w3.org/2000/svg">
<path d="M23.6094 20.1406H1.57812V17.9375H22.1094C22.9062 17.9375 23.5625 18.5937 23.5625 19.3906V20.1406H23.6094Z" fill="#BFD8D0"/>
<path d="M18.875 18.0781L18.7344 17.8906H8.9375L7.8125 19.3438H14.375C15.9219 19.3438 17.5156 18.9219 18.875 18.0781Z" fill="#9EC6B8"/>
<path d="M21.0345 15.7775C22.4694 14.9491 23.0029 13.187 22.2263 11.8419C21.4496 10.4967 19.6569 10.0778 18.222 10.9062C16.7872 11.7347 16.2536 13.4967 17.0303 14.8419C17.8069 16.187 19.5997 16.6059 21.0345 15.7775Z" fill="#E89715"/>
<path d="M20.4688 16.0156C20.4219 15.9218 20.375 15.7812 20.3281 15.6874C19.6719 14.5156 18.1719 14.0468 16.8594 14.5156C16.9063 14.6093 16.9531 14.7499 17 14.8437C17.7031 16.0156 19.1563 16.4843 20.4688 16.0156Z" fill="#E57417"/>
<path d="M22.25 11.8437C21.5937 10.6718 20.0938 10.2031 18.7812 10.6718C18.9219 10.9062 19.3906 11.5624 20.375 11.7031V12.5468L20.7969 13.7187C20.7969 13.7187 19.0625 15.3124 18.9687 16.1562C19.625 16.2499 20.375 16.1562 21.0312 15.7812C22.4844 14.9374 23 13.1562 22.25 11.8437Z" fill="#263047"/>
<path d="M18.7812 10.6719C18.9219 10.9062 19.3906 11.5625 20.375 11.7031" stroke="#263047" stroke-width="0.5" stroke-miterlimit="10" stroke-linecap="round"/>
<path d="M11.9375 13.2023C11.9375 13.2023 14.8906 12.7804 16.25 14.046C16.4844 14.2335 16.7188 14.3741 17 14.4679L17.1406 14.5148C17.5156 14.6085 17.7969 14.796 18.0312 15.0773L19.2969 16.671C17.9375 17.4679 16.3906 17.9366 14.7969 17.9366H8.23438" fill="#DB7158"/>
<path d="M14.8906 17.8906H11.8906V15.125H14.8906C15.6406 15.125 16.25 15.7344 16.25 16.4844C16.25 17.2812 15.6406 17.8906 14.8906 17.8906Z" fill="#E89715"/>
<path d="M16.25 16.5312C16.25 17.2813 15.6406 17.8906 14.8906 17.8906H11.8906" stroke="#263047" stroke-width="0.5" stroke-miterlimit="10" stroke-linecap="round"/>
<path d="M17.1406 14.5156C17.5156 14.6094 17.7969 14.7969 18.0312 15.0781L19.2969 16.6719" stroke="#263047" stroke-width="0.5" stroke-miterlimit="10" stroke-linecap="round"/>
<path d="M23.2811 14.2821C24.1248 15.4071 23.0936 16.4384 21.6873 17.4227C20.2811 18.454 19.0155 19.0634 18.1717 17.9384C17.328 16.8134 18.7342 16.3446 20.1405 15.3134C21.5936 14.329 22.4842 13.1571 23.2811 14.2821Z" fill="#BFD8D0"/>
<path d="M26.4219 27.5938H1.57812C0.921875 27.5938 0.40625 27.0781 0.40625 26.4219C0.40625 25.7656 0.921875 25.25 1.57812 25.25H26.4219C27.0781 25.25 27.5938 25.7656 27.5938 26.4219C27.5938 27.0781 27.0781 27.5938 26.4219 27.5938Z" fill="#263047"/>
<path d="M25.1562 11.3281H24.7812C24.125 11.3281 23.5625 11.8906 23.5625 12.5469V18.0312C23.5625 19.1562 22.625 20.0938 21.5 20.0938H1.57812V23.375H22.5312C23.0938 23.375 23.6094 23.7031 23.8438 24.2188L24.2188 25.0156C24.2656 25.1562 24.4062 25.25 24.5938 25.25H26C26.2344 25.25 26.4219 25.0625 26.4219 24.8281V23.375V21.9688V20.1406V12.5469C26.4219 11.8906 25.8594 11.3281 25.1562 11.3281Z" fill="#263047"/>
<path d="M17.8906 17.3281C16.9062 17.7031 15.875 17.8906 14.7969 17.8906H8.23438" stroke="#263047" stroke-width="0.5" stroke-miterlimit="10" stroke-linecap="round"/>
<path d="M1.57812 13.7656V21.6874H4.67188C5.28125 21.6874 5.75 21.2187 5.75 20.6093C5.75 19.9999 6.21875 19.5312 6.82813 19.5312H8.98437C9.59375 19.5312 10.0625 19.9999 10.0625 20.6093C10.0625 21.7812 11 22.6718 12.125 22.6718H12.3125C13.2969 22.6718 14.0469 21.8749 14.0469 20.9374V15.4531C14.0469 14.0468 13.0625 12.7812 11.6562 12.4999C7.85938 11.7499 3.92188 12.4531 2.28125 12.8281C1.90625 12.8749 1.57812 13.2968 1.57812 13.7656Z" fill="#263047"/>
<path d="M3.34983 18.088C3.64272 17.7951 3.77628 17.4538 3.64814 17.3257C3.52 17.1975 3.17868 17.3311 2.88579 17.624C2.5929 17.9169 2.45935 18.2582 2.58749 18.3863C2.71563 18.5145 3.05694 18.3809 3.34983 18.088Z" fill="white"/>
<path d="M2.3303 19.1251C2.62319 18.8322 2.75674 18.4909 2.6286 18.3628C2.50047 18.2346 2.15915 18.3682 1.86626 18.6611C1.57337 18.954 1.43982 19.2953 1.56795 19.4234C1.69609 19.5516 2.03741 19.418 2.3303 19.1251Z" fill="white"/>
<path d="M2.61982 18.395C2.74796 18.2669 2.6144 17.9256 2.32151 17.6327C2.02862 17.3398 1.68731 17.2062 1.55917 17.3344C1.43103 17.4625 1.56458 17.8038 1.85747 18.0967C2.15036 18.3896 2.49168 18.5232 2.61982 18.395Z" fill="#37508A"/>
<path d="M3.65595 19.4146C3.78409 19.2864 3.65053 18.9451 3.35764 18.6522C3.06475 18.3593 2.72344 18.2258 2.5953 18.3539C2.46716 18.4821 2.60072 18.8234 2.89361 19.1163C3.1865 19.4092 3.52781 19.5427 3.65595 19.4146Z" fill="#37508A"/>
<path d="M5.45627 18.0802C5.74916 17.7873 5.88272 17.446 5.75458 17.3179C5.62644 17.1897 5.28513 17.3233 4.99224 17.6162C4.69935 17.909 4.56579 18.2504 4.69393 18.3785C4.82207 18.5066 5.16338 18.3731 5.45627 18.0802Z" fill="white"/>
<path d="M4.43674 19.1173C4.72963 18.8244 4.86319 18.4831 4.73505 18.355C4.60691 18.2268 4.2656 18.3604 3.97271 18.6533C3.67982 18.9462 3.54626 19.2875 3.6744 19.4156C3.80254 19.5438 4.14385 19.4102 4.43674 19.1173Z" fill="white"/>
<path d="M4.72626 18.3872C4.8544 18.2591 4.72084 17.9178 4.42795 17.6249C4.13506 17.332 3.79375 17.1984 3.66561 17.3266C3.53747 17.4547 3.67103 17.796 3.96392 18.0889C4.25681 18.3818 4.59812 18.5154 4.72626 18.3872Z" fill="#37508A"/>
<path d="M5.76239 19.4068C5.89053 19.2786 5.75698 18.9373 5.46409 18.6444C5.1712 18.3515 4.82988 18.218 4.70174 18.3461C4.5736 18.4742 4.70716 18.8156 5.00005 19.1085C5.29294 19.4013 5.63425 19.5349 5.76239 19.4068Z" fill="#37508A"/>
<path d="M7.56077 18.0724C7.85366 17.7795 7.98721 17.4382 7.85907 17.31C7.73093 17.1819 7.38962 17.3155 7.09673 17.6083C6.80384 17.9012 6.67028 18.2425 6.79842 18.3707C6.92656 18.4988 7.26788 18.3653 7.56077 18.0724Z" fill="white"/>
<path d="M6.54123 19.1095C6.83412 18.8166 6.96768 18.4753 6.83954 18.3471C6.7114 18.219 6.37009 18.3526 6.0772 18.6455C5.78431 18.9383 5.65075 19.2797 5.77889 19.4078C5.90703 19.5359 6.24834 19.4024 6.54123 19.1095Z" fill="white"/>
<path d="M6.83173 18.3794C6.95987 18.2513 6.82631 17.91 6.53342 17.6171C6.24053 17.3242 5.89922 17.1906 5.77108 17.3188C5.64294 17.4469 5.7765 17.7882 6.06939 18.0811C6.36228 18.374 6.70359 18.5076 6.83173 18.3794Z" fill="#37508A"/>
<path d="M7.86786 19.3989C7.996 19.2708 7.86245 18.9295 7.56956 18.6366C7.27666 18.3437 6.93535 18.2102 6.80721 18.3383C6.67907 18.4664 6.81263 18.8077 7.10552 19.1006C7.39841 19.3935 7.73972 19.5271 7.86786 19.3989Z" fill="#37508A"/>
<path d="M9.63401 18.0978C9.9269 17.8049 10.0605 17.4636 9.93232 17.3354C9.80418 17.2073 9.46286 17.3408 9.16997 17.6337C8.87708 17.9266 8.74353 18.2679 8.87167 18.3961C8.99981 18.5242 9.34112 18.3907 9.63401 18.0978Z" fill="white"/>
<path d="M8.64768 19.1017C8.94057 18.8088 9.07413 18.4675 8.94599 18.3393C8.81785 18.2112 8.47654 18.3448 8.18365 18.6376C7.89076 18.9305 7.7572 19.2718 7.88534 19.4C8.01348 19.5281 8.35479 19.3946 8.64768 19.1017Z" fill="white"/>
<path d="M8.93818 18.3716C9.06632 18.2435 8.93276 17.9022 8.63987 17.6093C8.34698 17.3164 8.00566 17.1828 7.87753 17.311C7.74939 17.4391 7.88294 17.7804 8.17583 18.0733C8.46872 18.3662 8.81004 18.4997 8.93818 18.3716Z" fill="#37508A"/>
<path d="M9.94111 19.4243C10.0692 19.2962 9.93569 18.9549 9.6428 18.662C9.34991 18.3691 9.00859 18.2355 8.88045 18.3637C8.75232 18.4918 8.88587 18.8331 9.17876 19.126C9.47165 19.4189 9.81297 19.5525 9.94111 19.4243Z" fill="#37508A"/>
<path d="M11.7414 18.09C12.0343 17.7971 12.1679 17.4558 12.0397 17.3276C11.9116 17.1995 11.5703 17.333 11.2774 17.6259C10.9845 17.9188 10.8509 18.2601 10.9791 18.3883C11.1072 18.5164 11.4485 18.3829 11.7414 18.09Z" fill="white"/>
<path d="M10.7551 19.0939C11.048 18.801 11.1815 18.4597 11.0534 18.3315C10.9253 18.2034 10.584 18.3369 10.2911 18.6298C9.99818 18.9227 9.86462 19.264 9.99276 19.3922C10.1209 19.5203 10.4622 19.3868 10.7551 19.0939Z" fill="white"/>
<path d="M11.0446 18.3638C11.1728 18.2356 11.0392 17.8943 10.7463 17.6014C10.4534 17.3086 10.1121 17.175 9.98397 17.3031C9.85583 17.4313 9.98939 17.7726 10.2823 18.0655C10.5752 18.3584 10.9165 18.4919 11.0446 18.3638Z" fill="#37508A"/>
<path d="M12.0476 19.4165C12.1757 19.2884 12.0421 18.9471 11.7492 18.6542C11.4564 18.3613 11.115 18.2277 10.9869 18.3559C10.8588 18.484 10.9923 18.8253 11.2852 19.1182C11.5781 19.4111 11.9194 19.5447 12.0476 19.4165Z" fill="#37508A"/>
<path d="M13.8469 18.0821C14.1398 17.7893 14.2733 17.4479 14.1452 17.3198C14.0171 17.1917 13.6758 17.3252 13.3829 17.6181C13.09 17.911 12.9564 18.2523 13.0846 18.3805C13.2127 18.5086 13.554 18.375 13.8469 18.0821Z" fill="white"/>
<path d="M12.8274 19.1193C13.1203 18.8264 13.2538 18.4851 13.1257 18.3569C12.9975 18.2288 12.6562 18.3623 12.3633 18.6552C12.0704 18.9481 11.9369 19.2894 12.065 19.4176C12.1932 19.5457 12.5345 19.4121 12.8274 19.1193Z" fill="white"/>
<path d="M13.1169 18.3892C13.245 18.261 13.1115 17.9197 12.8186 17.6268C12.5257 17.3339 12.1844 17.2004 12.0562 17.3285C11.9281 17.4567 12.0617 17.798 12.3545 18.0909C12.6474 18.3838 12.9887 18.5173 13.1169 18.3892Z" fill="#37508A"/>
<path d="M14.153 19.4087C14.2812 19.2806 14.1476 18.9393 13.8547 18.6464C13.5618 18.3535 13.2205 18.2199 13.0924 18.3481C12.9642 18.4762 13.0978 18.8175 13.3907 19.1104C13.6836 19.4033 14.0249 19.5369 14.153 19.4087Z" fill="#37508A"/>
<path d="M3.35471 14.5685C3.6476 14.2756 3.78116 13.9343 3.65302 13.8061C3.52488 13.678 3.18357 13.8116 2.89068 14.1044C2.59779 14.3973 2.46423 14.7386 2.59237 14.8668C2.72051 14.9949 3.06182 14.8614 3.35471 14.5685Z" fill="white"/>
<path d="M2.33518 15.6056C2.62807 15.3127 2.76163 14.9714 2.63349 14.8432C2.50535 14.7151 2.16404 14.8487 1.87115 15.1416C1.57825 15.4344 1.4447 15.7758 1.57284 15.9039C1.70098 16.032 2.04229 15.8985 2.33518 15.6056Z" fill="white"/>
<path d="M2.62567 14.8755C2.75381 14.7474 2.62026 14.4061 2.32737 14.1132C2.03448 13.8203 1.69316 13.6867 1.56502 13.8149C1.43689 13.943 1.57044 14.2843 1.86333 14.5772C2.15622 14.8701 2.49754 15.0036 2.62567 14.8755Z" fill="#37508A"/>
<path d="M3.66181 15.895C3.78995 15.7669 3.65639 15.4256 3.3635 15.1327C3.07061 14.8398 2.7293 14.7062 2.60116 14.8344C2.47302 14.9625 2.60658 15.3038 2.89947 15.5967C3.19236 15.8896 3.53367 16.0232 3.66181 15.895Z" fill="#37508A"/>
<path d="M5.46116 14.5607C5.75405 14.2678 5.8876 13.9265 5.75946 13.7983C5.63132 13.6702 5.29001 13.8037 4.99712 14.0966C4.70423 14.3895 4.57067 14.7308 4.69881 14.859C4.82695 14.9871 5.16827 14.8536 5.46116 14.5607Z" fill="white"/>
<path d="M4.44162 15.5978C4.73451 15.3049 4.86807 14.9636 4.73993 14.8354C4.61179 14.7073 4.27048 14.8408 3.97759 15.1337C3.6847 15.4266 3.55114 15.7679 3.67928 15.8961C3.80742 16.0242 4.14873 15.8907 4.44162 15.5978Z" fill="white"/>
<path d="M4.73212 14.8677C4.86026 14.7396 4.7267 14.3982 4.43381 14.1054C4.14092 13.8125 3.79961 13.6789 3.67147 13.807C3.54333 13.9352 3.67689 14.2765 3.96978 14.5694C4.26267 14.8623 4.60398 14.9958 4.73212 14.8677Z" fill="#37508A"/>
<path d="M5.76825 15.8872C5.89639 15.7591 5.76284 15.4178 5.46995 15.1249C5.17706 14.832 4.83574 14.6984 4.7076 14.8266C4.57946 14.9547 4.71302 15.296 5.00591 15.5889C5.2988 15.8818 5.64011 16.0154 5.76825 15.8872Z" fill="#37508A"/>
<path d="M7.5676 14.5529C7.86049 14.26 7.99405 13.9186 7.86591 13.7905C7.73777 13.6624 7.39646 13.7959 7.10357 14.0888C6.81068 14.3817 6.67712 14.723 6.80526 14.8512C6.9334 14.9793 7.27471 14.8457 7.5676 14.5529Z" fill="white"/>
<path d="M6.54807 15.59C6.84096 15.2971 6.97452 14.9558 6.84638 14.8276C6.71824 14.6995 6.37693 14.833 6.08404 15.1259C5.79115 15.4188 5.65759 15.7601 5.78573 15.8883C5.91387 16.0164 6.25518 15.8828 6.54807 15.59Z" fill="white"/>
<path d="M6.83759 14.8599C6.96573 14.7317 6.83217 14.3904 6.53928 14.0975C6.24639 13.8047 5.90508 13.6711 5.77694 13.7992C5.6488 13.9274 5.78236 14.2687 6.07525 14.5616C6.36814 14.8545 6.70945 14.988 6.83759 14.8599Z" fill="#37508A"/>
<path d="M7.87372 15.8794C8.00186 15.7513 7.86831 15.41 7.57541 15.1171C7.28252 14.8242 6.94121 14.6906 6.81307 14.8188C6.68493 14.9469 6.81849 15.2882 7.11138 15.5811C7.40427 15.874 7.74558 16.0076 7.87372 15.8794Z" fill="#37508A"/>
<path d="M9.64084 14.5782C9.93373 14.2854 10.0673 13.944 9.93915 13.8159C9.81101 13.6878 9.4697 13.8213 9.17681 14.1142C8.88392 14.4071 8.75036 14.7484 8.8785 14.8765C9.00664 15.0047 9.34795 14.8711 9.64084 14.5782Z" fill="white"/>
<path d="M8.65451 15.5821C8.94741 15.2893 9.08096 14.9479 8.95282 14.8198C8.82468 14.6917 8.48337 14.8252 8.19048 15.1181C7.89759 15.411 7.76403 15.7523 7.89217 15.8805C8.02031 16.0086 8.36162 15.875 8.65451 15.5821Z" fill="white"/>
<path d="M8.94403 14.8521C9.07217 14.7239 8.93862 14.3826 8.64573 14.0897C8.35284 13.7968 8.01152 13.6633 7.88338 13.7914C7.75525 13.9196 7.8888 14.2609 8.18169 14.5538C8.47458 14.8467 8.81589 14.9802 8.94403 14.8521Z" fill="#37508A"/>
<path d="M9.94696 15.9048C10.0751 15.7767 9.94155 15.4354 9.64866 15.1425C9.35577 14.8496 9.01445 14.716 8.88631 14.8442C8.75817 14.9723 8.89173 15.3136 9.18462 15.6065C9.47751 15.8994 9.81882 16.0329 9.94696 15.9048Z" fill="#37508A"/>
<path d="M11.7473 14.5704C12.0402 14.2775 12.1737 13.9362 12.0456 13.8081C11.9175 13.6799 11.5761 13.8135 11.2833 14.1064C10.9904 14.3993 10.8568 14.7406 10.9849 14.8687C11.1131 14.9969 11.4544 14.8633 11.7473 14.5704Z" fill="white"/>
<path d="M10.761 15.5743C11.0539 15.2814 11.1874 14.9401 11.0593 14.812C10.9311 14.6839 10.5898 14.8174 10.2969 15.1103C10.004 15.4032 9.87048 15.7445 9.99862 15.8726C10.1268 16.0008 10.4681 15.8672 10.761 15.5743Z" fill="white"/>
<path d="M11.0505 14.8443C11.1786 14.7161 11.0451 14.3748 10.7522 14.0819C10.4593 13.789 10.118 13.6555 9.98983 13.7836C9.86169 13.9117 9.99525 14.2531 10.2881 14.546C10.581 14.8388 10.9223 14.9724 11.0505 14.8443Z" fill="#37508A"/>
<path d="M12.0534 15.897C12.1815 15.7689 12.048 15.4275 11.7551 15.1347C11.4622 14.8418 11.1209 14.7082 10.9928 14.8363C10.8646 14.9645 10.9982 15.3058 11.2911 15.5987C11.584 15.8916 11.9253 16.0251 12.0534 15.897Z" fill="#37508A"/>
<path d="M13.8594 14.5625C13.9063 14.5156 13.9531 14.4688 13.9531 14.4219C13.9062 14.2344 13.8125 14.0469 13.7187 13.8594C13.5781 13.9062 13.4844 13.9531 13.3906 14.0938C13.2031 14.2812 13.1094 14.5625 13.1094 14.8437C13.3906 14.8906 13.6719 14.7969 13.8594 14.5625Z" fill="white"/>
<path d="M12.8332 15.5997C13.1261 15.3068 13.2597 14.9655 13.1315 14.8374C13.0034 14.7092 12.6621 14.8428 12.3692 15.1357C12.0763 15.4286 11.9427 15.7699 12.0709 15.898C12.199 16.0262 12.5403 15.8926 12.8332 15.5997Z" fill="white"/>
<path d="M13.1227 14.8696C13.2509 14.7415 13.1173 14.4002 12.8244 14.1073C12.5315 13.8144 12.1902 13.6809 12.0621 13.809C11.934 13.9371 12.0675 14.2785 12.3604 14.5713C12.6533 14.8642 12.9946 14.9978 13.1227 14.8696Z" fill="#37508A"/>
<path d="M14.1589 15.8892C14.287 15.761 14.1535 15.4197 13.8606 15.1268C13.5677 14.8339 13.2264 14.7004 13.0982 14.8285C12.9701 14.9567 13.1036 15.298 13.3965 15.5909C13.6894 15.8838 14.0307 16.0173 14.1589 15.8892Z" fill="#37508A"/>
<path d="M1.57812 21.6875H4.67188C5.28125 21.6875 5.75 21.2187 5.75 20.6094C5.75 20 6.21875 19.5312 6.82813 19.5312H8.98437C9.59375 19.5312 10.0625 20 10.0625 20.6094C10.0625 21.7812 11 22.6719 12.125 22.6719H12.3125C13.2969 22.6719 14.0469 21.875 14.0469 20.9375V15.4531C14.0469 14.0469 13.0625 12.7812 11.6562 12.5" stroke="#263047" stroke-width="0.5" stroke-miterlimit="10" stroke-linecap="round"/>
<path d="M17.3281 12.5C17.587 12.5 17.7969 12.2901 17.7969 12.0312C17.7969 11.7724 17.587 11.5625 17.3281 11.5625C17.0692 11.5625 16.8594 11.7724 16.8594 12.0312C16.8594 12.2901 17.0692 12.5 17.3281 12.5Z" fill="#E89715"/>
<path d="M17.2812 13.2024C17.6563 12.8743 18.1719 12.9212 18.5 13.2493" stroke="#263047" stroke-width="0.5" stroke-miterlimit="10" stroke-linecap="round"/>
<path d="M18.9687 11.8906C18.7812 12.0781 18.4531 12.0313 18.3125 11.8438" stroke="#263047" stroke-width="0.5" stroke-miterlimit="10" stroke-linecap="round"/>
<path d="M20.7969 13.7656C21.2111 13.7656 21.5469 13.4298 21.5469 13.0156C21.5469 12.6014 21.2111 12.2656 20.7969 12.2656C20.3827 12.2656 20.0469 12.6014 20.0469 13.0156C20.0469 13.4298 20.3827 13.7656 20.7969 13.7656Z" fill="#E89715"/>
<path d="M14.8437 8.65625L14.1406 9.6875C14.0937 9.78125 13.9062 9.78125 13.8594 9.6875L13.1562 8.65625L14 7.8125L14.8437 8.65625Z" fill="#75C6A8"/>
<path d="M13.1562 8.65625L13.5312 9.26563C13.7656 9.35938 14 9.45313 14.2812 9.5L14.8437 8.70313L14 7.8125L13.1562 8.65625Z" fill="#57B5B5"/>
<path d="M14 9.3125C16.4594 9.3125 18.4531 7.31877 18.4531 4.85938C18.4531 2.39998 16.4594 0.40625 14 0.40625C11.5406 0.40625 9.54688 2.39998 9.54688 4.85938C9.54688 7.31877 11.5406 9.3125 14 9.3125Z" fill="#263047"/>
<path d="M13.0625 6.59375L12.875 6.40625C12.6406 6.17188 12.6406 5.79688 12.875 5.60938L15.3594 3.125C15.5938 2.89062 15.9687 2.89062 16.1562 3.125L16.3437 3.3125C16.5781 3.54687 16.5781 3.92187 16.3437 4.10937L13.8594 6.59375C13.625 6.82813 13.2969 6.82813 13.0625 6.59375Z" fill="white"/>
<path d="M11.9844 4.71875L12.1719 4.53125C12.4062 4.29688 12.7812 4.29688 12.9687 4.53125L14.0469 5.60938C14.2812 5.84375 14.2812 6.21875 14.0469 6.40625L13.8594 6.59375C13.625 6.82813 13.25 6.82813 13.0625 6.59375L11.9844 5.51562C11.75 5.28125 11.75 4.95312 11.9844 4.71875Z" fill="white"/>
<path d="M19.9062 8.23438C19.4844 7.8125 19.4844 7.10937 19.9062 6.6875" stroke="#263047" stroke-width="0.5" stroke-miterlimit="10" stroke-linecap="round"/>
<path d="M19.9062 8.23438C20.3281 8.65625 20.3281 9.35937 19.9062 9.78125" stroke="#263047" stroke-width="0.5" stroke-miterlimit="10" stroke-linecap="round"/>
<path d="M21.2187 8.23438C20.7969 7.8125 20.7969 7.10937 21.2187 6.6875" stroke="#263047" stroke-width="0.5" stroke-miterlimit="10" stroke-linecap="round"/>
<path d="M21.2188 8.23438C21.6406 8.65625 21.6406 9.35937 21.2188 9.78125" stroke="#263047" stroke-width="0.5" stroke-miterlimit="10" stroke-linecap="round"/>
<path d="M22.5781 8.23438C22.1562 7.8125 22.1562 7.10937 22.5781 6.6875" stroke="#263047" stroke-width="0.5" stroke-miterlimit="10" stroke-linecap="round"/>
<path d="M22.5781 8.23438C23 8.65625 23 9.35937 22.5781 9.78125" stroke="#263047" stroke-width="0.5" stroke-miterlimit="10" stroke-linecap="round"/>
</svg>
