<svg width="30" height="27" viewBox="0 0 30 27" fill="none" xmlns="http://www.w3.org/2000/svg">
<path d="M7.81132 6.12515C7.54769 6.12515 7.27894 6.1409 7.03007 6.20328C6.88432 6.24028 6.74056 6.30265 6.60032 6.35953C6.54606 6.38165 6.49731 6.41253 6.44407 6.43765C6.42194 6.4479 6.42706 6.4659 6.40507 6.47665C6.27282 6.54215 6.13907 6.58965 6.01444 6.67203C5.99694 6.6834 5.95369 6.6994 5.93632 6.71115C5.89969 6.73615 5.89406 6.76265 5.85819 6.78915C5.75619 6.8624 5.64144 6.9404 5.54569 7.02365C5.45831 7.10215 5.39306 7.2099 5.31132 7.29703C5.03481 7.58065 4.76432 7.88278 4.56907 8.23453C4.23382 8.8224 4.01057 9.4664 3.90507 10.1487C3.85419 10.1379 3.79344 10.1339 3.74882 10.1487C3.40719 10.2597 3.33107 10.9102 3.55357 11.5939C3.68407 11.9952 3.87894 12.3139 4.10032 12.4927C4.39781 13.6489 5.03744 14.6227 5.85819 15.2264V15.8902L5.19407 16.5152L3.90507 17.1802C2.85307 17.7014 1.79182 18.2214 0.741065 18.7427C0.15869 19.0939 -0.0566975 19.7752 -0.00118499 20.4227C0.0259175 20.8289 -0.132348 21.3614 0.272253 21.6327C0.656628 21.8302 1.14399 21.7177 1.56125 21.7502H3.82688C4.054 21.4527 4.33788 21.1777 4.68625 20.9689L4.72525 20.9302H4.76438C6.52813 20.0639 8.2695 19.1802 10.0378 18.3127L12.069 17.3364C11.9539 17.2789 11.8325 17.2364 11.7175 17.1802L10.4285 16.5152L9.76438 15.8902V15.2264C10.2838 14.8452 10.7228 14.2927 11.0535 13.6639C10.6079 12.9439 10.2649 12.1164 10.0378 11.2427C9.66038 10.8552 9.30663 10.4249 9.10025 9.79703C8.88788 9.15065 8.82725 8.48278 8.905 7.92203C8.97388 7.42528 9.2125 6.95503 9.68625 6.71115C9.54675 6.62053 9.36525 6.5499 9.2175 6.47665C9.143 6.44015 9.09875 6.39053 9.02225 6.35953C8.96788 6.3374 8.92125 6.33965 8.866 6.3204C8.69988 6.2629 8.53088 6.19365 8.35813 6.16415C8.34488 6.16215 8.33238 6.1664 8.319 6.16415C8.15688 6.13865 7.97744 6.12328 7.81132 6.12515Z" fill="#373737"/>
<path d="M16.8737 0.748047C16.4312 0.748047 15.995 0.748016 15.5762 0.873016C15.3325 0.873016 15.095 0.998108 14.86 1.12311C14.7687 1.12311 14.6762 1.12308 14.5862 1.24808H14.4837C14.2625 1.37308 14.045 1.49814 13.835 1.62314H13.7325C13.6712 1.74814 13.6225 1.74808 13.5625 1.87308C13.3912 1.99808 13.2112 1.99814 13.05 2.24814C12.9037 2.37314 12.7775 2.49805 12.64 2.62305C12.1761 3.12305 11.7735 3.62311 11.4456 4.24811C10.8825 5.12311 10.4621 6.24811 10.2847 7.37311H10.0457C9.47196 7.62311 9.33071 8.62314 9.70433 9.74814C9.92358 10.4981 10.2885 10.9981 10.6603 11.2481C11.1598 13.2481 12.218 14.873 13.5962 15.873V16.998L12.5037 17.9981L10.3188 19.1231C8.55196 19.9981 6.79183 20.8731 5.02696 21.7481C4.04883 22.2481 3.67046 23.498 3.76371 24.498C3.80921 25.248 3.56208 26.123 4.24158 26.498C4.88721 26.873 5.65746 26.6231 6.35846 26.6231H12.5037H21.2437C23.83 26.6231 26.4087 26.7481 28.995 26.6231C29.8337 26.6231 30.0662 25.7481 29.985 24.9981C30 23.9981 30.06 22.873 29.2675 22.123C28.6212 21.498 27.7012 21.248 26.9125 20.748C25.7537 20.248 24.5875 19.6231 23.43 19.1231L21.2437 17.9981L20.1512 16.998V15.873C21.53 14.873 22.5887 13.2481 23.0875 11.2481C23.46 10.9981 23.825 10.4981 24.0437 9.74814C24.4175 8.62314 24.2762 7.62311 23.7025 7.37311H23.4637C23.2862 6.24811 22.8662 5.12311 22.3025 4.24811C21.975 3.62311 21.5725 3.12305 21.1075 2.62305C20.97 2.49805 20.845 2.37314 20.6975 2.24814H20.6637C20.2362 1.87314 19.76 1.49808 19.2637 1.24808C19.1387 1.24808 19.0175 1.12311 18.8887 1.12311C18.7975 1.12311 18.7087 0.998138 18.615 0.998138C18.3362 0.873138 18.0525 0.873047 17.7612 0.748047H17.6937H16.8737Z" fill="#373737"/>
</svg>
