<svg width="184" height="185" viewBox="0 0 184 185" fill="none" xmlns="http://www.w3.org/2000/svg">
<path d="M92 0.833984C73.87 0.833984 56.1472 6.21014 41.0727 16.2826C25.9982 26.3551 14.249 40.6714 7.311 57.4213C0.37297 74.1712 -1.44234 92.6023 2.09464 110.384C5.63162 128.166 14.362 144.499 27.1818 157.319C40.0017 170.139 56.3351 178.869 74.1167 182.406C91.8983 185.943 110.329 184.128 127.079 177.19C143.829 170.252 158.146 158.502 168.218 143.428C178.29 128.353 183.667 110.631 183.667 92.5007C183.667 80.4628 181.296 68.5428 176.689 57.4213C172.082 46.2998 165.33 36.1946 156.818 27.6825C148.306 19.1705 138.201 12.4184 127.079 7.81169C115.958 3.20501 104.038 0.833984 92 0.833984ZM135.175 71.509L89.3416 117.342C88.4895 118.201 87.4756 118.883 86.3586 119.349C85.2415 119.814 84.0434 120.054 82.8333 120.054C81.6232 120.054 80.4251 119.814 79.308 119.349C78.191 118.883 77.1771 118.201 76.325 117.342L57.9916 99.009C56.2655 97.2829 55.2958 94.9417 55.2958 92.5007C55.2958 90.0596 56.2655 87.7184 57.9916 85.9923C59.7177 84.2662 62.0589 83.2965 64.5 83.2965C66.9411 83.2965 69.2822 84.2662 71.0083 85.9923L82.8333 97.909L122.158 58.4923C123.884 56.7662 126.226 55.7965 128.667 55.7965C131.108 55.7965 133.449 56.7662 135.175 58.4923C136.901 60.2184 137.871 62.5596 137.871 65.0007C137.871 67.4417 136.901 69.7829 135.175 71.509Z" fill="#2C7DA0"/>
</svg>
